<?xml version="1.0" encoding="UTF-8"?>
<svg xmlns="http://www.w3.org/2000/svg" xmlns:xlink="http://www.w3.org/1999/xlink" width="235pt" height="250pt" viewBox="0 0 235 250" version="1.1">
<g id="surface1">
<path style=" stroke:none;fill-rule:evenodd;fill:rgb(0%,0%,0%);fill-opacity:1;" d="M 111.019531 55.292969 C 117.335938 47.425781 118.972656 35.242188 116.71875 24.765625 C 114.464844 14.300781 108.304688 5.542969 99.050781 4.535156 L 99.050781 13.5 C 104.371094 18.265625 107.796875 22.800781 109.675781 29.109375 C 111.546875 35.398438 111.882812 43.464844 111.019531 55.292969 Z M 89.566406 70.109375 C 84.847656 71.792969 72.632812 75.125 66.378906 78.875 C 60.121094 82.625 58.824219 89.316406 58.785156 91.550781 C 62.492188 88.058594 64.339844 86.832031 69.394531 84.101562 C 79.160156 78.824219 94.957031 74.691406 104.957031 70.640625 C 120.203125 64.476562 136.324219 59.332031 145.296875 56.226562 C 151.980469 53.660156 154.914062 52.523438 157.519531 50.242188 C 160.125 47.957031 162.132812 43.542969 160.761719 41 C 156.660156 48.484375 134.589844 53.992188 120.554688 58.964844 C 112.75 61.742188 103.042969 65.082031 89.566406 70.109375 Z M 43.335938 98.824219 C 44.398438 104.382812 41.308594 103.875 41.308594 108.109375 C 41.308594 110.75 42.140625 111.601562 44.714844 112.699219 C 41.363281 117.007812 22.976562 127.898438 16.402344 129.433594 L 16.402344 130.925781 C 27.648438 130.925781 47.386719 120.984375 49.34375 113.957031 L 58.523438 114.066406 C 58.917969 112.390625 59.800781 111.292969 59.800781 109.273438 C 59.800781 103.925781 53.90625 96.582031 48.574219 96.582031 L 47.078125 96.582031 C 45.339844 96.582031 44.796875 97.808594 43.335938 98.824219 Z M 47.804688 105.050781 C 48.339844 105.324219 47.839844 107.207031 47.195312 107.632812 C 46.203125 108.109375 45.300781 107.773438 45.46875 107.292969 C 46.261719 105.359375 47.019531 104.839844 47.804688 105.050781 Z M 53.5625 106.007812 C 54.496094 106.339844 54.914062 109 54.15625 109.515625 C 52.878906 110.101562 51.238281 108.765625 51.273438 108.183594 C 51.539062 105.839844 52.277344 105.757812 53.5625 106.007812 Z M 93.429688 224.660156 C 106.636719 224.660156 114.261719 215.992188 119.160156 204.660156 C 123.476562 193.089844 123.710938 187.175781 121.679688 175.476562 C 119.140625 164.023438 115.683594 144.542969 114.570312 134.035156 C 115.214844 126.765625 116.410156 119.925781 117.722656 112.742188 C 123.84375 120.992188 126.761719 125.882812 129.375 138.707031 L 134.246094 170.824219 C 137.050781 188.339844 140.71875 206.5 155.78125 215.300781 C 166.527344 222.101562 183.777344 211.515625 184.730469 204.910156 C 170.527344 181.199219 169.835938 144.625 159.625 124.589844 L 165.566406 104.464844 L 184.746094 140.207031 L 184.136719 145.101562 L 175.707031 138.265625 L 189.714844 177.609375 C 195.882812 196.257812 192.539062 235.425781 166.675781 236.773438 C 149.609375 239.492188 134.210938 229.859375 128.371094 202.785156 C 125.28125 224.910156 110.5625 247.125 91.722656 245.765625 C 46.152344 237.351562 64.15625 183.640625 64.78125 152.523438 C 61.398438 152.589844 57.289062 165.007812 56.3125 168.617188 C 48.117188 188.964844 54.449219 246.675781 24.898438 244.273438 C 0.980469 239.433594 3.863281 188.785156 6.269531 162.441406 L 10.40625 162.441406 C 9.71875 189.425781 14.566406 214.726562 22.535156 223.25 C 25.875 226.824219 30.964844 225.984375 33.402344 222.910156 C 38.230469 216.808594 41.464844 203.773438 42.277344 199.800781 C 46.292969 180.082031 47.011719 157.007812 59.785156 140.382812 C 63.929688 134.992188 69.09375 130.132812 75.214844 127.207031 L 75.515625 150.726562 C 72.726562 169.515625 68.765625 185.117188 71.765625 204.035156 C 74.449219 213.609375 81.546875 224.660156 93.429688 224.660156 Z M 200.835938 89.839844 L 206.074219 125.667969 L 214.167969 177.167969 C 216.75 200.582031 220.234375 219.742188 222.199219 247.425781 C 230.566406 237.226562 231.179688 220.792969 230.191406 208.214844 C 222.722656 154.574219 215.261719 100.925781 207.804688 47.285156 L 218.753906 57.933594 L 219.023438 49.457031 L 196.015625 2.726562 C 194.285156 6.910156 189.039062 16.933594 188.707031 25.265625 C 195.679688 42.957031 196.574219 64.941406 200.835938 89.839844 Z M 127.394531 100.832031 C 120.9375 101.683594 120.871094 86.535156 120.535156 83.566406 C 120.21875 79.566406 119.367188 75.617188 116.820312 72.824219 C 115.566406 74.890625 113.160156 80.058594 112.933594 82.191406 L 114.171875 83.566406 C 115.65625 90.542969 117.269531 95.816406 114.582031 99.382812 C 110.554688 104.734375 102.84375 106.234375 102.859375 97.398438 L 103.871094 81.285156 C 104.28125 79.308594 104.699219 77.332031 105.105469 75.359375 C 98.808594 78.390625 96.007812 85.324219 92.699219 92.785156 L 92.953125 97.398438 L 97.539062 89.808594 L 97.957031 95.640625 C 98.046875 99.640625 96.367188 111.042969 106.652344 112.859375 C 112.390625 113.867188 116.753906 108.839844 118.839844 103.140625 C 120.417969 108.101562 124.839844 110.992188 130.027344 110 C 137.613281 107.808594 137.152344 98.390625 137.210938 93.714844 C 137.695312 88.582031 135.316406 78.859375 133.402344 73.148438 C 132.992188 71.917969 132.75 70.785156 131.40625 72.742188 C 129.96875 74.832031 128.171875 79.359375 128.414062 82.089844 L 130.429688 85.265625 C 131.597656 88.925781 132.367188 91.257812 131.589844 95.617188 C 131.371094 97.839844 130.710938 100.398438 127.394531 100.832031 Z M 127.394531 100.832031 "/>
</g>
</svg>
